{"title":"Together (dir. Lorenza Mazzetti, UK, 1956)","uid":5471801,"size":478196598,"categoryP":"video","categoryS":"other","magnet":"?xt=urn:btih:e7377749e8dde259d6b7a5258f787e360eb74e5a&amp;dn=Together+%28dir.+Lorenza+Mazzetti%2C+UK%2C+1956%29&amp;tr=udp%3A%2F%2Ftracker.openbittorrent.com%3A80&amp;tr=udp%3A%2F%2Fopen.demonii.com%3A1337&amp;tr=udp%3A%2F%2Ftracker.coppersurfer.tk%3A6969&amp;tr=udp%3A%2F%2Fexodus.desync.com%3A6969","seeders":0,"leechers":1,"uploader":"jkdornelles","files":-1,"time":1269931534,"description":"Together is a 1956 film about two deaf people in the East End of London, directed by Lorenza Mazzetti, in collaboration with Denis Horne. The two main characters are played by artists Eduardo Paolozzi and Michael Andrews, who were friends of the filmmaker. The film, produced by the British Film Institute Experimental Film Fund, was first shown as part of the first Free Cinema programme at the National Film Theatre in London in February 1956, along with Tony Richardson and Karel Reisz's Momma Don't Allow, and Lindsay Anderson's O Dreamland. \n\niNFOS\n\nFormat                           : AVI\nFile size                        : 455 MiB\nDuration                         : 46mn 49s\nOverall bit rate                 : 1 360 Kbps\n\nVideo\n\nFormat                           : MPEG-4 Visual\nCodec ID                         : XVID\nDuration                         : 46mn 48s\nBit rate                         : 1 222 Kbps\nWidth                            : 576 pixels\nHeight                           : 432 pixels\nDisplay aspect ratio             : 4:3\nFrame rate                       : 25.000 fps\nResolution                       : 24 bits\nBits/(Pixel*Frame)               : 0.196\nStream size                      : 409 MiB (90%)\nWriting library                  : XviD 1.2.0.dev47 (UTC 2006-11-01)\n\nAudio\n\nFormat                           : MPEG Audio Layer 3 MP3\nFormat_Settings_Mode             : Joint stereo / MS Stereo\nCodec ID                         : 55\nDuration                         : 46mn 49s\nBit rate mode                    : Constant\nBit rate                         : 128 Kbps\nChannel(s)                       : 2 channels\nSampling rate                    : 48.0 KHz\nResolution                       : 16 bits\nStream size                      : 42.9 MiB (9%)\nInterleave, duration             : 40 ms (1.00 video frame)\nInterleave, preload duration     : 504 ms\nWriting library                  : LAME3.97b\n\n","torrent":{"xt":"urn:btih:e7377749e8dde259d6b7a5258f787e360eb74e5a","amp;dn":"Together+%28dir.+Lorenza+Mazzetti%2C+UK%2C+1956%29","amp;tr":["udp%3A%2F%2Ftracker.openbittorrent.com%3A80","udp%3A%2F%2Fopen.demonii.com%3A1337","udp%3A%2F%2Ftracker.coppersurfer.tk%3A6969","udp%3A%2F%2Fexodus.desync.com%3A6969"],"infoHash":"e7377749e8dde259d6b7a5258f787e360eb74e5a","infoHashBuffer":{"type":"Buffer","data":[231,55,119,73,232,221,226,89,214,183,165,37,143,120,126,54,14,183,78,90]},"announce":[],"urlList":[]}}